<svg width="16" height="16" viewBox="0 0 16 16" fill="none" xmlns="http://www.w3.org/2000/svg">
<path fill-rule="evenodd" clip-rule="evenodd" d="M15.5199 4.90855C15.4624 3.69403 15.185 2.61822 14.2953 1.73186C13.4089 0.845506 12.3331 0.568096 11.1186 0.507201C9.86684 0.436157 6.11505 0.436157 4.86332 0.507201C3.65219 0.564713 2.57638 0.842123 1.68664 1.72848C0.796896 2.61484 0.522869 3.69065 0.461974 4.90516C0.39093 6.15689 0.39093 9.90869 0.461974 11.1604C0.519486 12.3749 0.796896 13.4507 1.68664 14.3371C2.57638 15.2235 3.6488 15.5009 4.86332 15.5618C6.11505 15.6328 9.86684 15.6328 11.1186 15.5618C12.3331 15.5042 13.4089 15.2268 14.2953 14.3371C15.1816 13.4507 15.459 12.3749 15.5199 11.1604C15.591 9.90869 15.591 6.16027 15.5199 4.90855ZM12.0387 4.89504C12.5394 4.89504 12.9454 4.49246 12.9454 3.98838C12.9454 3.48769 12.5394 3.08173 12.0387 3.08173C11.538 3.08173 11.1321 3.48769 11.1321 3.98838C11.1321 4.48907 11.5347 4.89504 12.0387 4.89504ZM7.99259 4.14734C5.84097 4.14734 4.10547 5.88284 4.10547 8.03446C4.10547 10.1861 5.84097 11.9216 7.99259 11.9216C10.1442 11.9216 11.8797 10.1861 11.8797 8.03446C11.8797 5.88284 10.1442 4.14734 7.99259 4.14734ZM7.99271 10.5616C6.60228 10.5616 5.46558 9.42828 5.46558 8.03446C5.46558 6.64065 6.5989 5.50732 7.99271 5.50732C9.38653 5.50732 10.5198 6.64065 10.5198 8.03446C10.5198 9.42828 9.38314 10.5616 7.99271 10.5616ZM12.4616 13.9447C13.128 13.6774 13.6389 13.1666 13.9027 12.5035C14.2422 11.6504 14.2234 9.78432 14.2111 8.57466C14.2091 8.374 14.2072 8.19141 14.2072 8.0345C14.2072 7.87755 14.2091 7.69499 14.2111 7.49439C14.2234 6.28538 14.2422 4.42147 13.9027 3.56549C13.6355 2.89903 13.1246 2.38819 12.4616 2.12431C11.6058 1.78666 9.73066 1.80464 8.52135 1.81624C8.32517 1.81813 8.14651 1.81984 7.99256 1.81984C7.83562 1.81984 7.65306 1.81799 7.45247 1.81596C6.24345 1.80371 4.37954 1.78482 3.52356 2.12431C2.8571 2.39157 2.34626 2.90241 2.08238 3.56549C1.74473 4.42128 1.76271 6.2964 1.77431 7.50571C1.77619 7.70189 1.77791 7.88055 1.77791 8.0345C1.77791 8.19144 1.77606 8.374 1.77403 8.57459C1.76178 9.78361 1.74289 11.6475 2.08238 12.5035C2.34964 13.17 2.86048 13.6808 3.52356 13.9447C4.37934 14.2823 6.25447 14.2643 7.46378 14.2527C7.65996 14.2509 7.83862 14.2492 7.99256 14.2492C8.14951 14.2492 8.33207 14.251 8.53267 14.253C9.74168 14.2653 11.6056 14.2842 12.4616 13.9447Z" fill="black"/>
</svg>
