<svg width="150" height="15" viewBox="0 0 150 15" fill="none" xmlns="http://www.w3.org/2000/svg">
<g clip-path="url(#clip0)">
<path d="M44.2425 3.81679C44.2425 1.55852 42.4613 0.286255 39.5351 0.286255H35.6865V14.2176H37.4041V0.922387H39.5351C41.1255 0.922387 42.3977 1.59033 42.3977 3.91221C42.3977 6.29771 41.1891 6.99745 40.1076 6.99745C39.0262 6.96564 38.4855 6.55216 38.4855 6.55216L39.2171 7.63358L43.6064 14.1857H45.642L40.9346 7.47455C43.0339 7.02926 44.2425 5.56615 44.2425 3.81679Z" fill="black"/>
<path d="M30.8206 3.81679C30.8206 1.55852 29.0395 0.286255 26.1132 0.286255H22.2646V14.2176H23.9822V0.922387H26.1132C27.7036 0.922387 28.9758 1.59033 28.9758 3.91221C28.9758 6.29771 27.7672 6.99745 26.6858 6.99745C25.6043 6.96564 25.0636 6.55216 25.0636 6.55216L25.7952 7.63358L30.2163 14.1857H32.2519L27.5445 7.47455C29.612 7.02926 30.8206 5.56615 30.8206 3.81679Z" fill="black"/>
<path d="M13.0409 0.159058L7.41113 14.1858H8.11088L9.92386 9.63743H15.649L17.5256 14.1858H19.3704L13.518 0.159058H13.0409ZM10.1783 9.0331L12.7228 2.60817L15.3946 9.0331H10.1783Z" fill="black"/>
<path d="M98.6003 0C94.6881 0 92.3662 3.46692 92.3662 7.31552C92.3662 11.1959 94.6563 14.3448 98.6003 14.3448C102.513 14.3448 104.834 11.1959 104.834 7.31552C104.834 3.46692 102.544 0 98.6003 0ZM98.6003 13.7087C96.0558 13.7087 94.211 12.3728 94.211 7.31552C94.211 2.32188 96.0558 0.636132 98.6003 0.636132C101.145 0.636132 102.99 2.35369 102.99 7.31552C102.99 12.3728 101.145 13.7087 98.6003 13.7087Z" fill="black"/>
<path d="M0 14.1858H1.71756V7.69727H6.93384V7.06113H1.71756V0.922456H7.37914V0.254517H0V14.1858Z" fill="black"/>
<path d="M145.293 7.41095C147.36 6.96566 148.569 5.50255 148.569 3.75319C148.569 1.49492 146.787 0.222656 143.861 0.222656H140.013V14.154H141.73V0.858789H143.861C145.452 0.858789 146.724 1.52673 146.724 3.84861C146.724 6.23411 145.515 6.93385 144.434 6.93385C143.352 6.90204 142.812 6.48856 142.812 6.48856L143.543 7.56998L147.933 14.1221H149.968L145.293 7.41095Z" fill="black"/>
<path d="M85.6233 0.222656H81.2021V14.154H82.9197V8.04708H85.6233C88.454 8.04708 90.1716 6.39314 90.1716 4.16668C90.1716 1.8766 88.5495 0.222656 85.6233 0.222656ZM85.4642 7.37914H82.9197V0.858789H85.4642C87.0546 0.858789 88.3268 1.62215 88.3268 4.16668C88.3268 6.6794 87.0546 7.37914 85.4642 7.37914Z" fill="black"/>
<path d="M119.434 11.5776L116.667 4.67558L118.416 0.222656H117.685L116.285 3.72138L114.854 0.222656H113.009L115.363 6.07507L113.168 11.5776L108.588 0.222656H106.743L112.373 14.2494H112.85L115.744 6.99747L118.639 14.2494H119.116L124.714 0.222656H123.951L119.434 11.5776Z" fill="black"/>
<path d="M129.835 7.44276H135.369V6.80663H129.835V0.858789H135.783V0.222656H128.117V14.1221H136.069V13.486H129.835V7.44276Z" fill="black"/>
<path d="M52.7675 0.159058L47.1377 14.1858H47.8374L49.6504 9.63743H55.3756L57.2522 14.1858H59.097L53.2446 0.159058H52.7675ZM49.8731 9.0331L52.4176 2.60817L55.0893 9.0331H49.8731Z" fill="black"/>
<path d="M70.7376 6.77487H63.7083V0.254517H61.959V14.1858H63.7083V7.41101H70.7376V14.1858H72.4552V0.254517H70.7376V6.77487Z" fill="black"/>
</g>
<defs>
<clipPath id="clip0">
<rect width="150" height="14.3448" fill="white"/>
</clipPath>
</defs>
</svg>
