<svg width="11" height="14" viewBox="0 0 11 14" fill="none" xmlns="http://www.w3.org/2000/svg">
  <path d="M5.65202 0.438965C2.99737 0.438965 0.373779 2.20873 0.373779 5.07295C0.373779 6.89445 1.39838 7.9294 2.01935 7.9294C2.2755 7.9294 2.42298 7.21529 2.42298 7.01347C2.42298 6.77285 1.80977 6.26055 1.80977 5.25924C1.80977 3.17899 3.39324 1.70419 5.44244 1.70419C7.20444 1.70419 8.50847 2.7055 8.50847 4.54512C8.50847 5.91902 7.95736 8.49604 6.17208 8.49604C5.52782 8.49604 4.97671 8.03031 4.97671 7.36277C4.97671 6.38474 5.65978 5.43777 5.65978 4.42869C5.65978 2.71585 3.23024 3.02634 3.23024 5.09623C3.23024 5.53091 3.28457 6.01216 3.47862 6.40803C3.12157 7.94493 2.39193 10.2348 2.39193 11.8182C2.39193 12.3072 2.46179 12.7885 2.50836 13.2775C2.59633 13.3758 2.55235 13.3655 2.68689 13.3163C3.99092 11.531 3.94435 11.1817 4.53427 8.84533C4.85252 9.45078 5.6753 9.77678 6.32732 9.77678C9.07511 9.77678 10.3093 7.09886 10.3093 4.68484C10.3093 2.11558 8.08932 0.438965 5.65202 0.438965Z" fill="black"/>
</svg>
